<svg width="48" height="32" viewBox="0 0 48 32" fill="none" xmlns="http://www.w3.org/2000/svg"><path d="M44.13.8H8.515C6.806.8 5.42 2.231 5.42 4v19.2c0 1.766 1.387 3.2 3.097 3.2H44.13c1.71 0 3.097-1.434 3.097-3.2V4c0-1.768-1.387-3.2-3.097-3.2z" fill="#DFF1FF"/><path d="M.774 10.4h41.807v4.8H.774v-4.8z" fill="#008DFF"/><path d="M42.58 8.8v1.6H.775V8.8c0-.849.326-1.663.907-2.263a3.049 3.049 0 012.19-.937h35.613c.821 0 1.609.337 2.19.937.58.6.907 1.414.907 2.263zM.774 15.2h41.807V28c0 .849-.327 1.663-.907 2.263-.581.6-1.369.937-2.19.937H3.87a3.047 3.047 0 01-2.19-.937A3.255 3.255 0 01.774 28V15.2z" fill="#DFF1FF"/><path d="M3.871 18.4h15.484v3.2H3.87v-3.2zm0 10.4h6.968a.762.762 0 00.547-.234.814.814 0 00.227-.566.814.814 0 00-.227-.566.761.761 0 00-.547-.234H3.87a.761.761 0 00-.547.234.814.814 0 00-.227.566c0 .212.081.416.227.566a.76.76 0 00.547.234zm10.064-1.6h-.774a.761.761 0 00-.547.234.814.814 0 00-.227.566c0 .212.082.416.227.566a.76.76 0 00.547.234h.774a.762.762 0 00.548-.234.814.814 0 00.227-.566.814.814 0 00-.227-.566.761.761 0 00-.548-.234z" fill="#008DFF"/><path d="M3.871 22.4h15.484a.761.761 0 00.547-.234.814.814 0 00.227-.566v-3.2a.814.814 0 00-.227-.566.762.762 0 00-.547-.234H3.87a.762.762 0 00-.547.234.814.814 0 00-.227.566v3.2c0 .212.081.416.227.566a.76.76 0 00.547.234zm.774-3.2h13.936v1.6H4.645v-1.6z" fill="#008DFF"/><path d="M44.129 0H8.516A3.813 3.813 0 005.78 1.173 4.073 4.073 0 004.645 4v.8h-.774a3.813 3.813 0 00-2.736 1.173A4.073 4.073 0 000 8.8V28a4.073 4.073 0 001.135 2.827A3.813 3.813 0 003.871 32h35.613a3.813 3.813 0 002.736-1.173A4.073 4.073 0 0043.355 28v-.8h.774a3.813 3.813 0 002.736-1.173A4.073 4.073 0 0048 23.2V4a4.073 4.073 0 00-1.135-2.827A3.813 3.813 0 0044.129 0zM1.549 8.8c0-.636.245-1.246.68-1.696A2.288 2.288 0 013.871 6.4h35.613c.616 0 1.206.254 1.641.704.436.45.68 1.06.681 1.696v.8H1.548v-.8zm0 2.4h40.257v3.2H1.548v-3.2zM41.805 28c0 .636-.245 1.246-.68 1.696a2.288 2.288 0 01-1.642.704H3.87a2.288 2.288 0 01-1.642-.704A2.444 2.444 0 011.55 28V16h40.257v12zm4.646-4.8a2.447 2.447 0 01-.681 1.696 2.288 2.288 0 01-1.642.704h-.774V8.8a4.073 4.073 0 00-1.135-2.827A3.813 3.813 0 0039.484 4.8H6.194V4c0-.636.245-1.246.68-1.696A2.288 2.288 0 018.517 1.6H44.13c.616 0 1.206.254 1.642.704.435.45.68 1.06.68 1.696v19.2z" fill="#008DFF"/></svg>