<svg width="44" height="40" viewBox="0 0 44 40" fill="none" xmlns="http://www.w3.org/2000/svg"><path d="M43.995 16.062c0 8.87-7.19 16.062-16.061 16.062-8.871 0-16.062-7.191-16.062-16.062C11.872 7.192 19.063 0 27.933 0c8.871 0 16.062 7.191 16.062 16.062z" fill="#DFF1FF"/><path d="M30.727 36.314H8.38V19.033a2.97 2.97 0 012.97-2.971h16.406a2.97 2.97 0 012.97 2.97v17.282h.001z" fill="#008DFF"/><path d="M30.727 37.012H8.38a.698.698 0 01-.698-.698V19.033a3.673 3.673 0 013.67-3.67h16.404a3.673 3.673 0 013.67 3.67v17.28a.698.698 0 01-.699.699zM9.078 35.615h20.95V19.033a2.276 2.276 0 00-2.272-2.273H11.351a2.276 2.276 0 00-2.273 2.273v16.582z" fill="#008DFF"/><path d="M43.297 36.314h-12.57V23.045h6.457a4.64 4.64 0 013.887 2.089l2.226 3.407v7.773z" fill="#fff"/><path d="M43.297 37.012h-12.57a.698.698 0 01-.698-.698V23.045c0-.386.312-.698.698-.698h6.457c1.817 0 3.487.898 4.47 2.404l2.227 3.407a.697.697 0 01.114.383v7.773a.697.697 0 01-.698.698zm-11.872-1.397H42.6V28.75l-2.113-3.234a3.925 3.925 0 00-3.301-1.771h-5.76v11.871z" fill="#008DFF"/><path d="M30.727 36.314H6.285v-.69a2.802 2.802 0 012.803-2.802h21.64v3.492z" fill="#9DC1E4"/><path d="M30.727 37.012H6.285a.698.698 0 01-.698-.698v-.69c0-1.93 1.57-3.5 3.5-3.5h21.64c.386 0 .698.312.698.698v3.492a.698.698 0 01-.698.698zM6.983 35.615H30.03V33.52H9.087c-1.157 0-2.099.94-2.104 2.095z" fill="#008DFF"/><path d="M40.349 36.14a3.162 3.162 0 11-6.325 0 3.162 3.162 0 016.325 0z" fill="#DFF1FF"/><path d="M37.187 40a3.865 3.865 0 01-3.861-3.86 3.865 3.865 0 013.86-3.861 3.865 3.865 0 013.86 3.86A3.866 3.866 0 0137.187 40zm0-6.325a2.467 2.467 0 00-2.464 2.464 2.467 2.467 0 002.464 2.464 2.467 2.467 0 002.463-2.464 2.467 2.467 0 00-2.463-2.464zm-19.03-9.931H.698a.698.698 0 110-1.397h17.459a.698.698 0 110 1.397z" fill="#008DFF"/><path d="M38.329 36.14a1.142 1.142 0 11-2.285 0 1.142 1.142 0 012.285 0z" fill="#008DFF"/><path d="M19.399 36.14a3.162 3.162 0 11-6.325 0 3.162 3.162 0 016.325 0z" fill="#DFF1FF"/><path d="M16.236 40a3.865 3.865 0 01-3.86-3.86 3.865 3.865 0 013.86-3.861 3.865 3.865 0 013.861 3.86A3.865 3.865 0 0116.237 40zm0-6.325a2.467 2.467 0 00-2.464 2.464 2.467 2.467 0 002.464 2.464 2.467 2.467 0 002.464-2.464 2.467 2.467 0 00-2.464-2.464z" fill="#008DFF"/><path d="M17.379 36.14a1.142 1.142 0 11-2.285 0 1.142 1.142 0 012.285 0z" fill="#008DFF"/><path d="M16.402 16.652a6.147 6.147 0 11-12.294 0 6.147 6.147 0 0112.294 0z" fill="#fff"/><path d="M10.255 23.497a6.853 6.853 0 01-6.845-6.845 6.853 6.853 0 016.845-6.845 6.853 6.853 0 016.845 6.845 6.853 6.853 0 01-6.845 6.845zm0-12.294a5.455 5.455 0 00-5.448 5.449 5.455 5.455 0 005.448 5.448 5.455 5.455 0 005.449-5.448 5.455 5.455 0 00-5.449-5.449z" fill="#008DFF"/><path d="M8.915 19.489a.698.698 0 01-.564-1.11l1.426-1.955v-2.827a.698.698 0 111.396 0v3.055a.696.696 0 01-.134.411L9.48 19.202a.697.697 0 01-.565.287z" fill="#008DFF"/><path d="M35.615 25.14v4.889h4.7a.514.514 0 00.447-.77l-1.63-2.854a2.511 2.511 0 00-2.18-1.265h-1.337z" fill="#DFF1FF"/><path d="M40.315 30.727h-4.7a.698.698 0 01-.698-.698V25.14c0-.386.312-.698.698-.698h1.336c1.15 0 2.217.62 2.787 1.617l1.63 2.854c.217.378.216.83-.003 1.21-.22.378-.612.604-1.05.604zm-4.001-1.396h3.684l-1.473-2.58a1.817 1.817 0 00-1.574-.913h-.637v3.492zm-22.347-2.794H4.888a.698.698 0 010-1.397h9.079a.698.698 0 110 1.397zm-3.492 2.793H.698a.698.698 0 110-1.396h9.777a.698.698 0 110 1.396z" fill="#008DFF"/></svg>