<svg width="54" height="40" viewBox="0 0 54 40" fill="none" xmlns="http://www.w3.org/2000/svg"><path d="M34.839 12.743H12.194a1.75 1.75 0 00-1.742 1.759v22.86c0 .971.78 1.759 1.742 1.759h22.645a1.75 1.75 0 001.742-1.759v-22.86a1.75 1.75 0 00-1.742-1.759z" fill="#DFF1FF"/><path d="M27.871 26.811l-4.355-3.517-4.355 3.517V12.743h8.71v14.068z" fill="#008DFF"/><path d="M13.065 33.845h3.483v2.638h-3.483v-2.638z" fill="#DFF1FF"/><path d="M37.452 26.811h5.225a7.81 7.81 0 005.54-2.32 7.96 7.96 0 002.3-5.593V9.227a7.96 7.96 0 00-2.3-5.593 7.81 7.81 0 00-5.54-2.32H30.76V0L27 2.193l3.76 2.192V3.072h11.917a6.075 6.075 0 014.31 1.805 6.191 6.191 0 011.787 4.35v9.671a6.191 6.191 0 01-1.788 4.35 6.074 6.074 0 01-4.309 1.805h-5.225V14.502a2.652 2.652 0 00-.767-1.864 2.604 2.604 0 00-1.846-.774H12.194a2.607 2.607 0 00-1.847.774 2.654 2.654 0 00-.766 1.864v22.86c0 .3.05.597.15.88H.87a.867.867 0 00-.616.257.884.884 0 000 1.243A.867.867 0 00.87 40h48.774a.867.867 0 00.616-.258.883.883 0 000-1.243.867.867 0 00-.616-.258H37.301c.1-.282.15-.58.15-.879v-10.55zm-17.42-13.188H27v11.359l-2.94-2.374a.868.868 0 00-1.088 0l-2.94 2.373V13.623zm15.678 11.43h-3.484a.867.867 0 00-.616.257.884.884 0 000 1.244.867.867 0 00.616.257h3.484v10.551a.884.884 0 01-.256.622.867.867 0 01-.615.258H12.194a.868.868 0 01-.616-.258.885.885 0 01-.255-.622v-22.86c0-.233.092-.457.255-.621a.868.868 0 01.616-.258h6.096V26.81a.886.886 0 00.494.793.863.863 0 00.922-.106l3.81-3.077 3.81 3.077a.867.867 0 001.282-.218.885.885 0 00.134-.469V13.623h6.097c.23 0 .452.093.615.258a.885.885 0 01.256.621v10.55z" fill="#008DFF"/><path d="M16.548 32.966h-3.483a.867.867 0 00-.616.258.884.884 0 00-.255.621v2.638c0 .233.091.457.255.622a.867.867 0 00.616.257h3.483a.867.867 0 00.616-.257.883.883 0 00.255-.622v-2.638a.883.883 0 00-.255-.621.867.867 0 00-.616-.258zm-.87 2.638h-1.743v-.88h1.742v.88zm6.967-2.638h-3.484a.867.867 0 00-.616.258.883.883 0 000 1.243.867.867 0 00.616.258h3.484a.867.867 0 00.616-.258.884.884 0 000-1.243.867.867 0 00-.616-.258zm-2.613 2.638h-.87a.867.867 0 00-.617.257.883.883 0 000 1.244.867.867 0 00.616.257h.871a.867.867 0 00.616-.257.884.884 0 000-1.244.867.867 0 00-.616-.257zm33.097 2.638h-.87a.867.867 0 00-.617.257.883.883 0 000 1.243.867.867 0 00.616.258h.871a.867.867 0 00.616-.258.884.884 0 000-1.243.867.867 0 00-.616-.258z" fill="#008DFF"/></svg>