<svg width="44" height="40" viewBox="0 0 44 40" fill="none" xmlns="http://www.w3.org/2000/svg"><path d="M34.064 16.429c0 9.073-7.307 16.428-16.322 16.428-9.015 0-16.323-7.355-16.323-16.428S8.727 0 17.742 0s16.322 7.356 16.322 16.429z" fill="#DFF1FF"/><path d="M24.141 23.427l14.216-6.503-14.216-5.204-16.298 6.301 16.298 5.406z" fill="#DFF1FF"/><path d="M24.14 24.142a.718.718 0 01-.222-.036L7.621 18.7a.715.715 0 01-.031-1.346l16.297-6.3a.71.71 0 01.496-.005L38.6 16.253a.716.716 0 01.051 1.321l-14.216 6.504a.713.713 0 01-.294.064zM9.956 17.97L24.1 22.662l12.382-5.665-12.334-4.514-14.193 5.486z" fill="#008DFF"/><path d="M38.361 17.233V31.41l-14.085 7.876-16.433-6.301V18.02l16.433 5.513 14.085-6.3z" fill="#DFF1FF"/><path d="M24.276 40a.703.703 0 01-.253-.047l-16.432-6.3a.714.714 0 01-.457-.668V18.02c0-.23.11-.445.295-.58a.7.7 0 01.64-.097l16.17 5.425 13.833-6.188a.706.706 0 01.675.054.714.714 0 01.323.598V31.41c0 .26-.14.498-.365.624L24.62 39.91a.7.7 0 01-.344.09zM8.554 32.492L24.22 38.5l13.43-7.51V18.332l-13.086 5.854a.708.708 0 01-.513.025l-15.498-5.2v13.48z" fill="#008DFF"/><path d="M24.129 40a.712.712 0 01-.71-.714V23.57c0-.395.318-.714.71-.714.392 0 .71.32.71.714v15.715a.712.712 0 01-.71.714zm-4.258-7.015L15.67 28.26l-2.895 2.362V20l7.097 1.959v11.026z" fill="#008DFF"/><path d="M19.871 33.699a.707.707 0 01-.529-.238l-3.751-4.218-2.37 1.934a.705.705 0 01-.752.09.712.712 0 01-.404-.645V20a.714.714 0 01.897-.69l7.097 1.96a.714.714 0 01.522.689v11.025a.715.715 0 01-.71.715zm-4.203-6.154c.195 0 .389.081.529.238l2.964 3.333v-8.613l-5.677-1.566v8.186l1.738-1.418a.7.7 0 01.446-.16zm15.553-6.862a.719.719 0 01-.23-.038l-14.77-5.098a.715.715 0 01-.441-.908.71.71 0 01.901-.444l14.77 5.098a.716.716 0 01-.23 1.39z" fill="#008DFF"/><path d="M14.485 15.536c0 3.828-3.084 6.932-6.888 6.932S.71 19.364.71 15.536c0-3.829 3.083-6.932 6.887-6.932 3.804 0 6.888 3.103 6.888 6.932z" fill="#fff"/><path d="M7.597 23.182C3.408 23.182 0 19.752 0 15.536c0-4.216 3.408-7.647 7.597-7.647s7.597 3.43 7.597 7.647c0 4.216-3.408 7.646-7.597 7.646zm0-13.864c-3.406 0-6.178 2.79-6.178 6.218s2.772 6.217 6.178 6.217c3.407 0 6.178-2.79 6.178-6.217 0-3.429-2.771-6.218-6.178-6.218z" fill="#008DFF"/><path d="M6.096 18.662a.716.716 0 01-.573-1.135l1.611-2.224V12.09c0-.395.318-.715.71-.715.392 0 .71.32.71.715v3.445a.715.715 0 01-.137.42l-1.748 2.412a.705.705 0 01-.573.294z" fill="#008DFF"/><path d="M37.805 21.733c-3.03 0-5.486 2.472-5.486 5.521 0 3.05 5.486 9.663 5.486 9.663s5.485-6.613 5.485-9.663-2.455-5.52-5.485-5.52z" fill="#DFF1FF"/><path d="M37.805 37.631a.707.707 0 01-.545-.257c-.579-.697-5.651-6.905-5.651-10.12 0-3.438 2.78-6.235 6.196-6.235S44 23.816 44 27.254c0 3.215-5.072 9.423-5.65 10.12a.706.706 0 01-.545.257zm0-15.183c-2.634 0-4.776 2.156-4.776 4.806 0 2.045 3.067 6.361 4.776 8.53 1.708-2.17 4.776-6.486 4.776-8.53 0-2.65-2.143-4.806-4.776-4.806z" fill="#008DFF"/><path d="M39.711 27.254c0 1.06-.853 1.92-1.906 1.92a1.913 1.913 0 01-1.907-1.92c0-1.06.853-1.919 1.907-1.919 1.053 0 1.906.86 1.906 1.92z" fill="#fff"/><path d="M37.805 29.888a2.627 2.627 0 01-2.617-2.634 2.627 2.627 0 012.617-2.633 2.627 2.627 0 012.616 2.633 2.627 2.627 0 01-2.616 2.634zm0-3.838c-.66 0-1.197.54-1.197 1.204 0 .664.537 1.205 1.197 1.205s1.197-.54 1.197-1.205c0-.664-.537-1.204-1.197-1.204z" fill="#008DFF"/></svg>