<?xml version="1.0" encoding="UTF-8" standalone="no"?>
<!-- Created with Sodipodi ("http://www.sodipodi.com/") -->
<svg xmlns:inkscape="http://www.inkscape.org/namespaces/inkscape" xmlns:rdf="http://www.w3.org/1999/02/22-rdf-syntax-ns#" xmlns="http://www.w3.org/2000/svg" xmlns:cc="http://creativecommons.org/ns#" xmlns:dc="http://purl.org/dc/elements/1.1/" xmlns:sodipodi="http://sodipodi.sourceforge.net/DTD/sodipodi-0.dtd" xmlns:svg="http://www.w3.org/2000/svg" xmlns:ns1="http://sozi.baierouge.fr" id="svg548" inkscape:version="0.48.3.1 r9886" viewBox="0 0 992.13 496.06" sodipodi:version="0.32" version="1.1" sodipodi:docname="_svgclean2.svg" xmlns:xlink="http://www.w3.org/1999/xlink">
  <sodipodi:namedview id="base" inkscape:window-x="0" inkscape:window-y="0" snaptoguides="false" snaptogrid="false" inkscape:window-maximized="0" inkscape:zoom="0.22425739" inkscape:window-height="645" showgrid="true" inkscape:current-layer="svg548" inkscape:cx="372.04724" inkscape:cy="-30.121078" inkscape:window-width="674"/>
  <rect id="rect568" style="fill-rule:evenodd;stroke-width:1pt;fill:#ffffff" height="496.06" width="992.13" y="0" x="0"/>
  <rect id="rect558" style="fill-rule:evenodd;stroke-width:1pt;fill:#94acd4" height="171.7" width="992.13" y=".00031" x="0"/>
  <rect id="rect555" style="fill-rule:evenodd;stroke-width:1pt;fill:#b73000" height="11.374" width="992.13" y="160.33" x="0"/>
  <rect id="rect557" style="fill-rule:evenodd;stroke-width:1pt;fill:#00a900" height="160.33" width="992.13" y="335.73" x="0"/>
  <rect id="rect556" style="fill-rule:evenodd;stroke-width:1pt;fill:#b73000" height="11.374" width="992.13" y="335.73" x="0"/>
  <polygon id="polygon561" style="fill-rule:evenodd;stroke-width:1pt;fill:#feffff" sodipodi:type="star" sodipodi:sides="5" sodipodi:r1="16.944826" sodipodi:r2="6.7779307" sodipodi:arg1="0.93428808" sodipodi:arg2="1.5626066" transform="matrix(.92289 0 0 .92799 71.38 -68.428)" inkscape:randomized="0" d="m 205.58449,128.73621 -10.01635,-6.84893 -9.90282,7.01206 3.41849,-11.64254 -9.72901,-7.2513 12.12909,-0.34657 3.88997,-11.493607 4.0777,11.428357 12.13314,0.14786 -9.60893,7.40967 z" sodipodi:cy="115.10958" sodipodi:cx="195.51263" inkscape:rounded="0" inkscape:flatsided="false" points="205.58 128.74 195.57 121.89 185.66 128.9 189.08 117.26 179.36 110.01 191.48 109.66 195.37 98.165 199.45 109.59 211.58 109.74 201.98 117.15"/>
  <polygon id="polygon562" style="fill-rule:evenodd;stroke-width:1pt;fill:#feffff" sodipodi:type="star" sodipodi:sides="5" sodipodi:r1="16.944826" sodipodi:r2="6.7779307" sodipodi:arg1="0.93428808" sodipodi:arg2="1.5626066" transform="matrix(.92289 0 0 .92799 27.81 17.296)" inkscape:randomized="0" d="m 205.58449,128.73621 -10.01635,-6.84893 -9.90282,7.01206 3.41849,-11.64254 -9.72901,-7.2513 12.12909,-0.34657 3.88997,-11.493607 4.0777,11.428357 12.13314,0.14786 -9.60893,7.40967 z" sodipodi:cy="115.10958" sodipodi:cx="195.51263" inkscape:rounded="0" inkscape:flatsided="false" points="205.58 128.74 195.57 121.89 185.66 128.9 189.08 117.26 179.36 110.01 191.48 109.66 195.37 98.165 199.45 109.59 211.58 109.74 201.98 117.15"/>
  <polygon id="polygon563" style="fill-rule:evenodd;stroke-width:1pt;fill:#feffff" sodipodi:type="star" sodipodi:sides="5" sodipodi:r1="16.944826" sodipodi:r2="6.7779307" sodipodi:arg1="0.93428808" sodipodi:arg2="1.5626066" transform="matrix(.92289 0 0 .92799 71.798 17.296)" inkscape:randomized="0" d="m 205.58449,128.73621 -10.01635,-6.84893 -9.90282,7.01206 3.41849,-11.64254 -9.72901,-7.2513 12.12909,-0.34657 3.88997,-11.493607 4.0777,11.428357 12.13314,0.14786 -9.60893,7.40967 z" sodipodi:cy="115.10958" sodipodi:cx="195.51263" inkscape:rounded="0" inkscape:flatsided="false" points="205.58 128.74 195.57 121.89 185.66 128.9 189.08 117.26 179.36 110.01 191.48 109.66 195.37 98.165 199.45 109.59 211.58 109.74 201.98 117.15"/>
  <polygon id="polygon564" style="fill-rule:evenodd;stroke-width:1pt;fill:#feffff" sodipodi:type="star" sodipodi:sides="5" sodipodi:r1="16.944826" sodipodi:r2="6.7779307" sodipodi:arg1="0.93428808" sodipodi:arg2="1.5626066" transform="matrix(.92289 0 0 .92799 112.44 17.296)" inkscape:randomized="0" d="m 205.58449,128.73621 -10.01635,-6.84893 -9.90282,7.01206 3.41849,-11.64254 -9.72901,-7.2513 12.12909,-0.34657 3.88997,-11.493607 4.0777,11.428357 12.13314,0.14786 -9.60893,7.40967 z" sodipodi:cy="115.10958" sodipodi:cx="195.51263" inkscape:rounded="0" inkscape:flatsided="false" points="205.58 128.74 195.57 121.89 185.66 128.9 189.08 117.26 179.36 110.01 191.48 109.66 195.37 98.165 199.45 109.59 211.58 109.74 201.98 117.15"/>
  <polygon id="polygon565" style="fill-rule:evenodd;stroke-width:1pt;fill:#feffff" sodipodi:type="star" sodipodi:sides="5" sodipodi:r1="16.944826" sodipodi:r2="6.7779307" sodipodi:arg1="0.93428808" sodipodi:arg2="1.5626066" transform="matrix(.92289 0 0 .92799 150.14 17.296)" inkscape:randomized="0" d="m 205.58449,128.73621 -10.01635,-6.84893 -9.90282,7.01206 3.41849,-11.64254 -9.72901,-7.2513 12.12909,-0.34657 3.88997,-11.493607 4.0777,11.428357 12.13314,0.14786 -9.60893,7.40967 z" sodipodi:cy="115.10958" sodipodi:cx="195.51263" inkscape:rounded="0" inkscape:flatsided="false" points="205.58 128.74 195.57 121.89 185.66 128.9 189.08 117.26 179.36 110.01 191.48 109.66 195.37 98.165 199.45 109.59 211.58 109.74 201.98 117.15"/>
  <polygon id="polygon566" style="fill-rule:evenodd;stroke-width:1pt;fill:#feffff" sodipodi:type="star" sodipodi:sides="5" sodipodi:r1="16.944826" sodipodi:r2="6.7779307" sodipodi:arg1="0.93428808" sodipodi:arg2="1.5626066" transform="matrix(.92289 0 0 .92799 -18.272 17.296)" inkscape:randomized="0" d="m 205.58449,128.73621 -10.01635,-6.84893 -9.90282,7.01206 3.41849,-11.64254 -9.72901,-7.2513 12.12909,-0.34657 3.88997,-11.493607 4.0777,11.428357 12.13314,0.14786 -9.60893,7.40967 z" sodipodi:cy="115.10958" sodipodi:cx="195.51263" inkscape:rounded="0" inkscape:flatsided="false" points="205.58 128.74 195.57 121.89 185.66 128.9 189.08 117.26 179.36 110.01 191.48 109.66 195.37 98.165 199.45 109.59 211.58 109.74 201.98 117.15"/>
  <polygon id="polygon567" style="fill-rule:evenodd;stroke-width:1pt;fill:#feffff" sodipodi:type="star" sodipodi:sides="5" sodipodi:r1="16.944826" sodipodi:r2="6.7779307" sodipodi:arg1="0.93428808" sodipodi:arg2="1.5626066" transform="matrix(.92289 0 0 .92799 26.972 -25.25)" inkscape:randomized="0" d="m 205.58449,128.73621 -10.01635,-6.84893 -9.90282,7.01206 3.41849,-11.64254 -9.72901,-7.2513 12.12909,-0.34657 3.88997,-11.493607 4.0777,11.428357 12.13314,0.14786 -9.60893,7.40967 z" sodipodi:cy="115.10958" sodipodi:cx="195.51263" inkscape:rounded="0" inkscape:flatsided="false" points="205.58 128.74 195.57 121.89 185.66 128.9 189.08 117.26 179.36 110.01 191.48 109.66 195.37 98.165 199.45 109.59 211.58 109.74 201.98 117.15"/>
  <polygon id="polygon568" style="fill-rule:evenodd;stroke-width:1pt;fill:#feffff" sodipodi:type="star" sodipodi:sides="5" sodipodi:r1="16.944826" sodipodi:r2="6.7779307" sodipodi:arg1="0.93428808" sodipodi:arg2="1.5626066" transform="matrix(.92289 0 0 .92799 71.38 -25.25)" inkscape:randomized="0" d="m 205.58449,128.73621 -10.01635,-6.84893 -9.90282,7.01206 3.41849,-11.64254 -9.72901,-7.2513 12.12909,-0.34657 3.88997,-11.493607 4.0777,11.428357 12.13314,0.14786 -9.60893,7.40967 z" sodipodi:cy="115.10958" sodipodi:cx="195.51263" inkscape:rounded="0" inkscape:flatsided="false" points="205.58 128.74 195.57 121.89 185.66 128.9 189.08 117.26 179.36 110.01 191.48 109.66 195.37 98.165 199.45 109.59 211.58 109.74 201.98 117.15"/>
  <polygon id="polygon569" style="fill-rule:evenodd;stroke-width:1pt;fill:#feffff" sodipodi:type="star" sodipodi:sides="5" sodipodi:r1="16.944826" sodipodi:r2="6.7779307" sodipodi:arg1="0.93428808" sodipodi:arg2="1.5626066" transform="matrix(.92289 0 0 .92799 113.27 -25.25)" inkscape:randomized="0" d="m 205.58449,128.73621 -10.01635,-6.84893 -9.90282,7.01206 3.41849,-11.64254 -9.72901,-7.2513 12.12909,-0.34657 3.88997,-11.493607 4.0777,11.428357 12.13314,0.14786 -9.60893,7.40967 z" sodipodi:cy="115.10958" sodipodi:cx="195.51263" inkscape:rounded="0" inkscape:flatsided="false" points="205.58 128.74 195.57 121.89 185.66 128.9 189.08 117.26 179.36 110.01 191.48 109.66 195.37 98.165 199.45 109.59 211.58 109.74 201.98 117.15"/>
  <polygon id="polygon570" style="fill-rule:evenodd;stroke-width:1pt;fill:#feffff" sodipodi:type="star" sodipodi:sides="5" sodipodi:r1="16.944826" sodipodi:r2="6.7779307" sodipodi:arg1="0.93428808" sodipodi:arg2="1.5626066" transform="matrix(.92289 0 0 .92799 149.72 -25.25)" inkscape:randomized="0" d="m 205.58449,128.73621 -10.01635,-6.84893 -9.90282,7.01206 3.41849,-11.64254 -9.72901,-7.2513 12.12909,-0.34657 3.88997,-11.493607 4.0777,11.428357 12.13314,0.14786 -9.60893,7.40967 z" sodipodi:cy="115.10958" sodipodi:cx="195.51263" inkscape:rounded="0" inkscape:flatsided="false" points="205.58 128.74 195.57 121.89 185.66 128.9 189.08 117.26 179.36 110.01 191.48 109.66 195.37 98.165 199.45 109.59 211.58 109.74 201.98 117.15"/>
  <polygon id="polygon571" style="fill-rule:evenodd;stroke-width:1pt;fill:#feffff" sodipodi:type="star" sodipodi:sides="5" sodipodi:r1="16.944826" sodipodi:r2="6.7779307" sodipodi:arg1="0.93428808" sodipodi:arg2="1.5626066" transform="matrix(.92289 0 0 .92799 149.3 -68.428)" inkscape:randomized="0" d="m 205.58449,128.73621 -10.01635,-6.84893 -9.90282,7.01206 3.41849,-11.64254 -9.72901,-7.2513 12.12909,-0.34657 3.88997,-11.493607 4.0777,11.428357 12.13314,0.14786 -9.60893,7.40967 z" sodipodi:cy="115.10958" sodipodi:cx="195.51263" inkscape:rounded="0" inkscape:flatsided="false" points="205.58 128.74 195.57 121.89 185.66 128.9 189.08 117.26 179.36 110.01 191.48 109.66 195.37 98.165 199.45 109.59 211.58 109.74 201.98 117.15"/>
  <polygon id="polygon572" style="fill-rule:evenodd;stroke-width:1pt;fill:#feffff" sodipodi:type="star" sodipodi:sides="5" sodipodi:r1="16.944826" sodipodi:r2="6.7779307" sodipodi:arg1="0.93428808" sodipodi:arg2="1.5626066" transform="matrix(.92289 0 0 .92799 112.85 -68.428)" inkscape:randomized="0" d="m 205.58449,128.73621 -10.01635,-6.84893 -9.90282,7.01206 3.41849,-11.64254 -9.72901,-7.2513 12.12909,-0.34657 3.88997,-11.493607 4.0777,11.428357 12.13314,0.14786 -9.60893,7.40967 z" sodipodi:cy="115.10958" sodipodi:cx="195.51263" inkscape:rounded="0" inkscape:flatsided="false" points="205.58 128.74 195.57 121.89 185.66 128.9 189.08 117.26 179.36 110.01 191.48 109.66 195.37 98.165 199.45 109.59 211.58 109.74 201.98 117.15"/>
  <path id="path575" inkscape:connector-curvature="0" sodipodi:nodetypes="csccc" style="fill-rule:evenodd;fill:#ffffff" d="m142.44 25.951c-49.436-13.551-80.752 21.448-80.28 52.812 0.471 31.367 29.377 64.577 73.99 56.297-70.098 32.85-105.95-18.9-104.52-59.983 2.462-48.559 57.045-88.161 110.81-49.126z"/>
  <metadata id="metadata22">
    <rdf:RDF>
      <cc:Work>
        <dc:format>image/svg+xml</dc:format>
        <dc:type rdf:resource="http://purl.org/dc/dcmitype/StillImage"/>
        <cc:license rdf:resource="http://creativecommons.org/licenses/publicdomain/"/>
        <dc:publisher>
          <cc:Agent rdf:about="http://openclipart.org/">
            <dc:title>Openclipart</dc:title>
          </cc:Agent>
        </dc:publisher>
      </cc:Work>
      <cc:License rdf:about="http://creativecommons.org/licenses/publicdomain/">
        <cc:permits rdf:resource="http://creativecommons.org/ns#Reproduction"/>
        <cc:permits rdf:resource="http://creativecommons.org/ns#Distribution"/>
        <cc:permits rdf:resource="http://creativecommons.org/ns#DerivativeWorks"/>
      </cc:License>
    </rdf:RDF>
  </metadata>
</svg>
